<mxfile host="app.diagrams.net" modified="2023-11-13T09:07:33.743Z" agent="Mozilla/5.0 (Linux; Android 13; SAMSUNG SM-A037F) AppleWebKit/537.36 (KHTML, like Gecko) SamsungBrowser/23.0 Chrome/115.0.0.0 Mobile Safari/537.36" version="22.1.0" etag="C5f803YlY7QbH5aLmz-G" type="github">
  <diagram name="Страница — 1" id="tIoq7gBVZSFwMucSHokd">
    <mxGraphModel>
      <root>
        <mxCell id="0" />
        <mxCell id="1" parent="0" />
      </root>
    </mxGraphModel>
  </diagram>
</mxfile>
